<svg xmlns="http://www.w3.org/2000/svg" viewBox="0 0 200 25.79"><defs><style>.cls-1{fill:#fff;}</style></defs><g id="圖層_2" data-name="圖層 2"><g id="圖層_2-2" data-name="圖層 2"><path class="cls-1" d="M7.86,7h.89c2.05,0,3.81,0,3.4,2.76s-2.29,2.63-4.21,2.63H7.05ZM0,24.05H5.3l1.07-7.17h3c4.63,0,7.56-2.23,8.32-7.34.74-5-2-7.11-6.35-7.11H3.23Z"/><path class="cls-1" d="M39.78,3.47l-1.36,9h0a4.89,4.89,0,0,1,4-1.94c2.9,0,4,2,3.55,5.11l-1.11,7.43H40.79l.93-6.22C41.94,15.48,42,14,40.33,14S38,15.48,37.77,16.9l-.93,6.22H32.78L35.71,3.47Z"/><path class="cls-1" d="M54.46,14.32a2.17,2.17,0,0,1,2.2,2.74,3,3,0,0,1-3,2.72,2.13,2.13,0,0,1-2.2-2.72,3.06,3.06,0,0,1,3-2.74M55,10.58a7.68,7.68,0,0,0-7.86,6.48c-.62,4.14,2.27,6.47,5.93,6.47A7.7,7.7,0,0,0,61,17.06c.62-4.14-2.25-6.48-5.94-6.48"/><path class="cls-1" d="M67.08,12.49h0A4.91,4.91,0,0,1,71,10.58a3.48,3.48,0,0,1,3.56,2.32,5.15,5.15,0,0,1,4.23-2.32c2.9,0,3.61,2,3.19,4.8l-1.16,7.74H76.79l.87-5.79c.18-1.26.54-3.32-1.18-3.32-1.88,0-2.23,1.87-2.44,3.32l-.87,5.79H69.11L70,17.33c.21-1.36.51-3.41-1.3-3.41S66.56,16,66.35,17.33l-.86,5.79H61.43L63.24,11H67.3Z"/><path class="cls-1" d="M87.52,15.29a2.77,2.77,0,0,1,2.7-1.92,1.93,1.93,0,0,1,2,1.92Zm8.18,2c.62-4.15-1.29-6.75-5.27-6.75a7.19,7.19,0,0,0-7.31,6.48c-.63,4.19,1.87,6.47,5.67,6.47a6.69,6.69,0,0,0,6.45-4.17H91.33a2.39,2.39,0,0,1-2.11,1.11c-1.67,0-2.4-.94-2.15-2.7h8.56Z"/><path class="cls-1" d="M33.27,9.85l1-6.42a10.94,10.94,0,0,0-3.32-1l-.79,5.21a4.4,4.4,0,0,1,3.15,2.18"/><path class="cls-1" d="M32.25,16.7a6.91,6.91,0,0,1-3.82,2.1L27.64,24a19,19,0,0,0,3.65-.9Z"/><path class="cls-1" d="M27.64,24l.79-5.21a5.1,5.1,0,0,1-.86.08c-3.14,0-4.9-2.35-4.41-5.59a6.34,6.34,0,0,1,6-5.71,5.87,5.87,0,0,1,.94.09l.79-5.21a10.55,10.55,0,0,0-1.13-.06,12,12,0,0,0-7.89,3.33,13,13,0,0,0-4,7.53A9.14,9.14,0,0,0,19.86,21a9,9,0,0,0,6.83,3,7.34,7.34,0,0,0,.95-.06"/><path class="cls-1" d="M62.78,3.26a1.23,1.23,0,0,1,1.13,1.51,1.92,1.92,0,0,1-1.59,1.59c-.77,0-1.22-.89-1.12-1.59a1.76,1.76,0,0,1,1.58-1.51m-.59,4a2.8,2.8,0,0,0,2.65-2.44,2,2,0,0,0-1.93-2.44,2.81,2.81,0,0,0-2.65,2.44,2,2,0,0,0,1.93,2.44"/><polygon class="cls-1" points="68.71 2.37 69.36 2.37 71.32 5.61 71.34 5.61 71.8 2.5 72.7 2.5 72 7.22 71.35 7.22 69.39 3.98 69.38 3.98 68.91 7.12 68.01 7.12 68.71 2.37"/><polygon class="cls-1" points="76.76 6.34 78.04 6.34 77.92 7.12 75.74 7.12 76.42 2.5 77.33 2.5 76.76 6.34"/><polygon class="cls-1" points="82.18 7.12 81.28 7.12 81.96 2.5 82.86 2.5 82.18 7.12"/><polygon class="cls-1" points="86.61 2.37 87.26 2.37 89.22 5.61 89.23 5.61 89.69 2.5 90.6 2.5 89.9 7.22 89.25 7.22 87.29 3.98 87.28 3.98 86.81 7.12 85.91 7.12 86.61 2.37"/><polygon class="cls-1" points="95.11 3.28 94.96 4.3 96.4 4.3 96.28 5.08 94.84 5.08 94.66 6.34 96.15 6.34 96.03 7.12 93.64 7.12 94.32 2.5 96.72 2.5 96.6 3.28 95.11 3.28 95.11 3.28"/><polygon class="cls-1" points="118.54 7.1 112.34 7.1 108.64 24.92 103.49 24.92 107.19 7.1 100.99 7.1 101.87 2.83 119.42 2.83 118.54 7.1"/><path class="cls-1" d="M133.84,12c0,.23,0,.54-.06.92a8.66,8.66,0,0,1-.17,1.12l-2.25,10.85h-4.87l1.72-8.27c.12-.63.22-1.16.29-1.6a7.39,7.39,0,0,0,.11-1.17,1.93,1.93,0,0,0-.45-1.43,2.33,2.33,0,0,0-1.62-.44,3.77,3.77,0,0,0-1.32.28,9.42,9.42,0,0,0-1.67.82L121.1,24.92h-4.84l4.79-23.08h4.84l-1.72,8.26a18.09,18.09,0,0,1,2.7-1.69,6,6,0,0,1,2.7-.61,4.32,4.32,0,0,1,3.16,1.1A4.27,4.27,0,0,1,133.84,12"/><path class="cls-1" d="M143.84,23.16l-1.1.79a7.66,7.66,0,0,1-1.19.73,9,9,0,0,1-1.4.52,7.1,7.1,0,0,1-1.81.18,4.17,4.17,0,0,1-3.06-1.17,4.05,4.05,0,0,1-1.18-3,6.29,6.29,0,0,1,.84-3.35,5.91,5.91,0,0,1,2.49-2.2,13.14,13.14,0,0,1,3.69-1.11c1.43-.23,3-.4,4.64-.51,0-.06,0-.15.06-.29a2,2,0,0,0,0-.45A1.49,1.49,0,0,0,145,11.8a6.17,6.17,0,0,0-2.63-.43,8.79,8.79,0,0,0-2.62.45c-1,.3-1.68.54-2.16.74h-.44l.71-4c.56-.15,1.43-.33,2.6-.53a21,21,0,0,1,3.51-.3,10,10,0,0,1,5.18,1A3.47,3.47,0,0,1,150.78,12c0,.2,0,.46-.05.77a5.73,5.73,0,0,1-.13.84l-2.35,11.33h-4.78Zm1.28-6.1c-.86.08-1.67.17-2.42.28a8.67,8.67,0,0,0-1.92.48,2.77,2.77,0,0,0-1.25.91,2.71,2.71,0,0,0-.42,1.58,1.3,1.3,0,0,0,.57,1.21,3.2,3.2,0,0,0,1.65.34,3.78,3.78,0,0,0,1.53-.36,7.16,7.16,0,0,0,1.52-.92Z"/><path class="cls-1" d="M159.6,8.26l-3.48,16.66h-4.84l3.48-16.66Zm1.47-6.42-.84,4.05h-5.11l.85-4Z"/><path class="cls-1" d="M178.13,8.3c-.25-.22-.83-.69-1.16-1a10.87,10.87,0,0,1-1.18,1h-2.34a9.34,9.34,0,0,0,2.08-1.63h.83a17.58,17.58,0,0,1-1.19-1.42h-4.83a20,20,0,0,1-1.68,1.43h.85A7.88,7.88,0,0,0,171,8.34h-2.24c-.31-.35-.6-.69-.86-1a17.19,17.19,0,0,1-1.65,1h-2.57a19.71,19.71,0,0,0,4.68-3h-4l.17-1h4.85a7.18,7.18,0,0,0,.82-.85H166l.16-1H171a6.14,6.14,0,0,0,.57-.81H165.5l.17-1h6.47A4.3,4.3,0,0,0,172.5,0h1.82c-.09.19-.27.57-.38.75h7.46l-.17,1h-7.84c-.12.21-.4.61-.55.81h7.48l-.16,1H172.1c-.2.24-.51.61-.75.85h10l-.17,1h-3.9a15.54,15.54,0,0,0,3.66,3Zm-11.34,3.2h-3a17.47,17.47,0,0,0,4.85-2.77h2.22A22.58,22.58,0,0,1,166.79,11.5Zm5.26.25a2.35,2.35,0,0,1-1.18.3h-2l-.45-.94h2a.45.45,0,0,0,.5-.36l.85-4.89h1.75L172.67,11A1.2,1.2,0,0,1,172.05,11.75Zm5-.25a16.88,16.88,0,0,1-3.31-2.77h2.2a19.68,19.68,0,0,0,4,2.77Z"/><path class="cls-1" d="M197.83,11.55a2.42,2.42,0,0,1-1.47.43H183.57a1.65,1.65,0,0,1-1.2-.44,1,1,0,0,1-.31-.93l1.6-9.31a1.45,1.45,0,0,1,.84-.93A3,3,0,0,1,185.79.1h12.52a1.94,1.94,0,0,1,1.32.41,1.07,1.07,0,0,1,.35,1l-1.58,9.2A1.31,1.31,0,0,1,197.83,11.55Zm.37-10.1c0-.18-.19-.37-.4-.37H186c-.25,0-.56.14-.6.35l-1.58,9.21c0,.24.24.37.47.37h11.74c.29,0,.52-.13.56-.36ZM184.62,9.92l.18-1.07c1.7-.18,4.77-.73,6.37-1.06l-.17,1C189.37,9.14,186.28,9.71,184.62,9.92Zm6.24-2.67a1.68,1.68,0,0,1-1.08.33h-3a1.27,1.27,0,0,1-.88-.29.72.72,0,0,1-.23-.67l.23-1.34a1,1,0,0,1,.51-.62,2.08,2.08,0,0,1,1-.25h2.75a1.79,1.79,0,0,1,1.05.27.76.76,0,0,1,.28.75l-.18,1.05A1.23,1.23,0,0,1,190.86,7.25Zm3.67.33c.07.37.22,1.11.29,1.45.05.17.31.27.52.27h1l-.43.95h-1.06a2.94,2.94,0,0,1-.89-.12.9.9,0,0,1-.56-.45,2.77,2.77,0,0,1-.22-.76c-.46.4-1.42,1.18-1.93,1.54h-2.18a26.84,26.84,0,0,0,3.83-3.05,32.71,32.71,0,0,1-.45-3.68h-6.81l.16-.93h6.56c0-.33-.09-1-.09-1.28h1.56c0,.31.06.93.11,1.28h.95a6.38,6.38,0,0,1-.29-1.1h1.48a8.86,8.86,0,0,0,.36,1.1h.94l-.16.93H194A18.82,18.82,0,0,0,194.31,6a11.75,11.75,0,0,0,1.26-1.59h1.68A34.13,34.13,0,0,1,194.53,7.58Zm-4.79-2c0-.15-.11-.26-.33-.26h-1.5c-.22,0-.43.11-.46.27l-.14.84c0,.15.14.27.32.27h1.58a.35.35,0,0,0,.38-.26Z"/><path class="cls-1" d="M162.65,25.79h-1.9a12.15,12.15,0,0,0,1.57-2.71H164A23.72,23.72,0,0,1,162.65,25.79Zm4.06-3.62a2.23,2.23,0,0,1-1.34.35h-2.22a1.55,1.55,0,0,1-1.05-.29,1,1,0,0,1-.24-1L162.94,15a1.31,1.31,0,0,1,.71-1,2.65,2.65,0,0,1,1.2-.23h2a1.71,1.71,0,0,1,1.07.29.9.9,0,0,1,.31.9l-1.12,6.5A1.15,1.15,0,0,1,166.71,22.17Zm-.9-2.32h-2.12l-.25,1.44c0,.16.2.32.43.32H165a.54.54,0,0,0,.53-.29Zm.45-2.57h-2.13l-.28,1.62H166Zm.37-2.2c0-.18-.17-.35-.44-.35H165a.47.47,0,0,0-.5.34l-.22,1.29h2.13ZM165,25.79a12.19,12.19,0,0,1-.34-2.71h1.62a10.12,10.12,0,0,0,.46,2.71Zm12.16-2.22-.17,1a1.26,1.26,0,0,1-.71,1,3.22,3.22,0,0,1-1.49.28H173.2l-.34-.94h1.95a.53.53,0,0,0,.57-.35l.16-.93h-6l-.38,2.22h-1.68l.38-2.22h-1l.16-.87h1l.34-1.95a1.39,1.39,0,0,1,.74-1.07,3,3,0,0,1,1.4-.26h1.85l.13-.71H168l.15-.87h2.69l.13-.78h-1.76l.15-.83h1.76l.1-.62h-2.32l.16-.89h2.32l.17-1h1.58l-.17,1h2.32l.17-1H177l-.17,1h2.35l-.15.89h-2.36l-.1.62h1.7l-.15.83h-1.7l-.13.78H179l-.15.87h-4.7l-.12.71h2a2.26,2.26,0,0,1,1.24.27.94.94,0,0,1,.35,1l-.34,2h.93l-.15.87ZM172,21.93h-2.09l-.13.77h2.09Zm.28-1.63h-1.64c-.23,0-.47.13-.5.31l-.07.44h2.08Zm2.61-3.22h-2.32l-.13.76h2.32Zm.25-1.47h-2.32l-.11.62H175Zm.73,6.32h-2.19l-.12.74h2.18Zm.23-1.32c0-.18-.16-.31-.38-.31h-1.76l-.12.75H176Z"/><path class="cls-1" d="M184.75,21.11l-.8,4.68h-1.66l.72-4.2c-.76.24-2.54.7-3.16.83l.19-1.09c.7-.15,2.3-.54,3.15-.79l.55-3.19h-1.08c-.2.58-.52,1.44-.77,2h-1.58a16,16,0,0,0,1.44-4.7h1.51c-.1.57-.22,1.18-.36,1.75h1l.46-2.67H186l-.46,2.67h1.51l-.17,1H185.4L185,20a14.29,14.29,0,0,0,1.58-.46l-.18,1.06C185.92,20.75,185.22,21,184.75,21.11Zm10.59,4.43a2.54,2.54,0,0,1-1.15.25h-2.72l-.45-1h2.78a.46.46,0,0,0,.48-.31l1.33-7.7c0-.14-.15-.25-.37-.25H195a18.11,18.11,0,0,1-6.47,9h-2.22a16.44,16.44,0,0,0,7-9h-1.1a19.9,19.9,0,0,1-4.52,6.28h-2a16.09,16.09,0,0,0,4.83-6.28h-.81a20.86,20.86,0,0,1-1.94,2.26h-1.93a16,16,0,0,0,3.8-5.13h1.7c-.25.56-.8,1.53-1,1.89h5.51a2,2,0,0,1,1.22.31,1,1,0,0,1,.36,1L196,24.71A1.2,1.2,0,0,1,195.34,25.54Z"/></g></g></svg>